<svg xmlns="http://www.w3.org/2000/svg" xmlns:xlink="http://www.w3.org/1999/xlink" width="800" zoomAndPan="magnify" viewBox="0 0 600 599.999999" height="800" preserveAspectRatio="xMidYMid meet" version="1.0"><defs><clipPath id="385c3593a0"><path d="M 47.25 0 L 552.75 0 C 565.28125 0 577.300781 4.976562 586.160156 13.839844 C 595.023438 22.699219 600 34.71875 600 47.25 L 600 552.75 C 600 565.28125 595.023438 577.300781 586.160156 586.160156 C 577.300781 595.023438 565.28125 600 552.75 600 L 47.25 600 C 34.71875 600 22.699219 595.023438 13.839844 586.160156 C 4.976562 577.300781 0 565.28125 0 552.75 L 0 47.25 C 0 21.15625 21.15625 0 47.25 0 Z M 47.25 0 " clip-rule="nonzero"/></clipPath></defs><rect x="-60" width="720" fill="#ffffff" y="-60" height="719.999999" fill-opacity="1"/><rect x="-60" width="720" fill="#ffffff" y="-60" height="719.999999" fill-opacity="1"/><g clip-path="url(#385c3593a0)"><rect x="-60" width="720" fill="#ffffff" y="-60" height="719.999999" fill-opacity="1"/></g><path fill="#0aeaea" d="M 399.734375 274.445312 C 379.730469 244.164062 346.527344 231.980469 314.34375 238.757812 C 314.34375 238.757812 314.285156 235.304688 314.222656 230.175781 L 314.222656 194.609375 C 314.222656 194.609375 330.65625 181.65625 337.867188 175.640625 C 340.824219 173.15625 343.976562 170.398438 346.8125 167.726562 C 352.769531 161.652344 357.871094 154.875 361.796875 147.25 C 374.96875 122.453125 369.308594 90.535156 347.414062 72.429688 C 336.316406 62.78125 316.707031 56.75 305.34375 69.550781 C 297.152344 79.191406 296.496094 91.925781 295.554688 103.582031 C 294.746094 119.054688 295.140625 134.035156 295.320312 149.339844 C 295.460938 162.988281 295.714844 177.195312 296.015625 191.429688 C 251.167969 226.484375 194.554688 256.402344 184.164062 316.722656 C 175.992188 365.542969 204.101562 408.910156 248.570312 427.558594 C 269.300781 436.566406 297.398438 438.007812 297.398438 438.007812 L 297.398438 443.109375 C 297.191406 455.574219 296.289062 472.472656 292.992188 482.949219 C 283.589844 509.382812 255.394531 518.539062 231.703125 504.804688 C 226.75 502.398438 219.011719 495.148438 216.980469 492.671875 C 212.800781 487.015625 209.945312 480.71875 209.664062 474.511719 C 209.277344 469.601562 210.738281 465.023438 213.289062 461.191406 C 213.089844 468.207031 216.675781 475.351562 223.324219 479.652344 C 233.152344 486.007812 245.925781 483.738281 251.847656 474.578125 C 254.480469 470.503906 255.3125 465.75 254.558594 461.164062 C 254.753906 460.601562 254.800781 459.941406 254.625 459.234375 C 246.792969 430.722656 209.785156 436.746094 199.066406 460.214844 C 192.4375 473.75 197.726562 491.503906 206.058594 503.167969 C 234.121094 539.949219 291.84375 537.652344 308.996094 488.71875 C 314.917969 470.109375 314.984375 442.714844 314.964844 437.714844 C 314.964844 437.714844 321.535156 437.019531 325.515625 436.425781 C 361.363281 431.210938 395.714844 410.339844 410.183594 375.960938 C 424.019531 343.035156 419.378906 303.957031 399.734375 274.445312 Z M 316.507812 149.527344 C 317.035156 134.882812 317.488281 119.875 318.957031 105.464844 C 319.492188 100.359375 320.132812 95.558594 321.375 90.835938 C 321.78125 89.441406 322.25 87.871094 322.851562 86.777344 C 322.890625 86.785156 322.929688 86.785156 322.957031 86.796875 C 328.746094 87.90625 333.941406 92.492188 337.699219 97.265625 C 346.988281 108.898438 348.996094 125.277344 343.648438 139.136719 C 341.4375 145.132812 338.054688 151.007812 334.113281 156.109375 C 328.492188 162.746094 322.316406 168.789062 315.859375 174.644531 C 316.074219 166.265625 316.292969 157.878906 316.507812 149.527344 Z M 348.503906 266.246094 C 387.695312 283.726562 397.390625 342.65625 365.75 370.664062 C 338.226562 393.925781 314.210938 392.011719 314.210938 392.011719 L 314.210938 262.558594 C 325.753906 260.496094 337.671875 261.410156 348.503906 266.246094 Z M 225.121094 302.660156 C 234.515625 262.078125 265.5625 232.828125 297.398438 207.394531 L 297.398438 220.703125 C 297.21875 227.066406 296.984375 233.441406 297.125 239.304688 C 297.171875 240.953125 297.203125 242.601562 297.238281 244.246094 C 292.523438 246.289062 287.882812 248.746094 283.371094 251.65625 C 269.242188 260.84375 257.289062 273.597656 250.988281 289.5 C 240.832031 313.558594 252.007812 343.777344 276.6875 353.484375 C 280.484375 354.886719 283.101562 349.613281 279.671875 347.441406 C 276.679688 345.679688 273.949219 343.421875 271.558594 340.914062 C 263.445312 332.632812 259.773438 320.6875 260.957031 309.285156 C 262.550781 298.074219 269.234375 288.359375 277.515625 280.726562 C 283.34375 275.445312 290.132812 271.039062 297.410156 267.78125 L 297.410156 392.765625 C 264.628906 390.441406 235.324219 373.761719 225.140625 342.429688 C 224.859375 341.152344 224.605469 339.84375 224.386719 338.515625 C 222.496094 326.710938 222.476562 314.59375 225.121094 302.660156 Z M 225.121094 302.660156 " fill-opacity="1" fill-rule="nonzero"/></svg>